<?xml version="1.0" encoding="utf-8"?>
<svg version="1.1" id="emoji" xmlns="http://www.w3.org/2000/svg" viewBox="12 12 48 48" xml:space="preserve">
	<g id="_xD83C__xDFA8__1_">

		<path fill="#A57939" stroke="#000000" stroke-width="2" stroke-linecap="round" stroke-linejoin="round" stroke-miterlimit="10" d="
			M59,36c-0.2-0.8-0.7-2.1-2-3c-1.6-1.1-3.6-1-4-1c-0.8,0-1.2,0.2-2,0c-0.6-0.1-1.5-0.3-2-1c-0.4-0.6-0.2-1.1,0-3
			c0.1-1.5,0.2-2.3,0-3c-0.4-1.6-1.5-2.6-2-3c-1-0.9-2.4-1.6-5-2c-1.8-0.3-4.8-0.6-9,0c-2.2,0.3-5.5,0.9-8,1.7c-1.8,0.6-3.7,1.4-6,3
			c0,0,0,0,0,0c-3.4,2.2-5.4,6.2-5.2,10.3C14.6,57.1,54.6,59.9,59,41C59.1,40.4,59.8,38.3,59,36z M38.2,30.1c-1.5,0-2.8-1.2-2.8-2.8
			c0-1.5,1.2-2.8,2.8-2.8h2.7c1.5,0,2.8,1.2,2.8,2.8c0,0.8-0.3,1.5-0.8,2s-1.2,0.8-2,0.8H38.2z"/>
		<circle fill="#47B9FF" stroke="none" cx="21" cy="33" r="4"/>

		<circle fill="#56C40E" stroke="none" cx="26" cy="42" r="4"/>
		<circle fill="#FCEA2B" stroke="none" cx="36" cy="45" r="4"/>
		<circle fill="#F63B31" stroke="none" cx="46" cy="44" r="4"/>
	</g>
</svg>
